<svg xmlns="http://www.w3.org/2000/svg" viewBox="0 0 1080 912"><defs><style>.a{fill:#e7e6f7;}.b{fill:#ff2d55;}.c,.g{fill:none;stroke-miterlimit:10;}.c{stroke:#000;stroke-width:6px;}.d{fill:#33ca7f;}.e{fill:#645dd7;}.f{fill:#011627;}.g{stroke:#645dd7;stroke-width:5px;}</style></defs><rect class="a" x="-49.9305" y="-13.9818" width="1167.1895" height="935.3676"/><path class="b" d="M436.8562,403.9768V533.6225a69.975,69.975,0,1,1-29.4721-134.7212h6.1822A69.6468,69.6468,0,0,1,436.8562,403.9768Z"/><path class="b" d="M697.7794,398.9013H770.93a3,3,0,0,1,3,3v51.6a3,3,0,0,1-3,3H697.7794a28.8,28.8,0,0,1-28.8-28.8v0A28.8,28.8,0,0,1,697.7794,398.9013Z"/><path class="b" d="M636.9957,481.389h73.8726A28.6516,28.6516,0,0,1,739.52,510.0406v0a28.6516,28.6516,0,0,1-28.6516,28.6516H636.9957a3,3,0,0,1-3-3V484.389A3,3,0,0,1,636.9957,481.389Z"/><path class="c" d="M228.9448,813.8837a14.3375,14.3375,0,1,1-28.675,0c0-43.4886-33.8284-79.76-75.7227-85.6267,2.6038-4.4389-13.6888-11.4123-13.6888-16.9352,0-4.9148,15.738-7.806,13.6389-11.9008C181.8588,705.8213,228.9448,754.8417,228.9448,813.8837Z"/><path class="d" d="M130.1191,713.3145a29.8172,29.8172,0,0,1-4.0948,15.1347,87.4887,87.4887,0,0,0-12.02-.8316,14.3376,14.3376,0,1,1,0-28.6751,114.373,114.373,0,0,1,12.8349.7169A29.8569,29.8569,0,0,1,130.1191,713.3145Z"/><path class="e" d="M114.0038,727.6176a87.4887,87.4887,0,0,1,12.02.8316,30.029,30.029,0,1,1,.8144-28.79,114.373,114.373,0,0,0-12.8349-.7169,14.3376,14.3376,0,1,0,0,28.6751Z"/><circle class="f" cx="-15.1347" cy="2.2516" r="124.2516"/><rect class="f" x="178.8026" y="787.8999" width="681.6948" height="25.526" rx="12.763"/><circle class="d" cx="847.7343" cy="800.6629" r="12.763"/><circle class="e" cx="1005.1865" cy="571.2881" r="29.1026"/><circle class="d" cx="1011.3008" cy="393.5763" r="16.1468"/><circle class="g" cx="910.6526" cy="800.6629" r="77.3288"/><circle class="a" cx="519.65" cy="800.6629" r="4.6975"/><circle class="f" cx="546.2969" cy="774.016" r="4.6975"/><circle class="f" cx="493.003" cy="827.3099" r="4.6975"/><path class="g" d="M990.3038,707.089a3,3,0,0,1-1.8573,3.8147l-33.7771,11.6545c-.0024-.0025-1.63.56-3.4873,1.2019a5.9265,5.9265,0,0,1-7.1679-2.9607c-.7489-1.4244-1.5193-1.691-3.16-1.2821a5.8978,5.8978,0,0,1-6.9158-3.8844l-12.9691-37.58a3,3,0,0,1,1.857-3.8144l47.3259-16.3369a3,3,0,0,1,3.8147,1.857Z"/><circle class="e" cx="820.1961" cy="49.6106" r="2.8675"/><circle class="e" cx="843.1361" cy="49.6106" r="2.8675"/><circle class="e" cx="866.0762" cy="49.6106" r="2.8675"/><circle class="e" cx="889.0162" cy="49.6106" r="2.8675"/><circle class="e" cx="911.9563" cy="49.6106" r="2.8675"/><circle class="e" cx="934.8963" cy="49.6106" r="2.8675"/><circle class="e" cx="957.8363" cy="49.6106" r="2.8675"/><circle class="e" cx="980.7764" cy="49.6106" r="2.8675"/><circle class="e" cx="1003.7164" cy="49.6106" r="2.8675"/><circle class="e" cx="1026.6565" cy="49.6106" r="2.8675"/><circle class="e" cx="1049.5965" cy="49.6106" r="2.8675"/><circle class="e" cx="808.726" cy="72.5506" r="2.8675"/><circle class="e" cx="831.6661" cy="72.5506" r="2.8675"/><circle class="e" cx="854.6061" cy="72.5506" r="2.8675"/><circle class="e" cx="877.5462" cy="72.5506" r="2.8675"/><circle class="e" cx="900.4862" cy="72.5506" r="2.8675"/><circle class="e" cx="923.4263" cy="72.5506" r="2.8675"/><circle class="e" cx="946.3663" cy="72.5506" r="2.8675"/><circle class="e" cx="969.3064" cy="72.5506" r="2.8675"/><circle class="e" cx="992.2464" cy="72.5506" r="2.8675"/><circle class="e" cx="1015.1865" cy="72.5506" r="2.8675"/><circle class="e" cx="1038.1265" cy="72.5506" r="2.8675"/><circle class="e" cx="820.1961" cy="95.4907" r="2.8675"/><circle class="e" cx="843.1361" cy="95.4907" r="2.8675"/><circle class="e" cx="866.0762" cy="95.4907" r="2.8675"/><circle class="e" cx="889.0162" cy="95.4907" r="2.8675"/><circle class="e" cx="911.9563" cy="95.4907" r="2.8675"/><circle class="e" cx="934.8963" cy="95.4907" r="2.8675"/><circle class="e" cx="957.8363" cy="95.4907" r="2.8675"/><circle class="e" cx="980.7764" cy="95.4907" r="2.8675"/><circle class="e" cx="1003.7164" cy="95.4907" r="2.8675"/><circle class="e" cx="1026.6565" cy="95.4907" r="2.8675"/><circle class="e" cx="1049.5965" cy="95.4907" r="2.8675"/><circle class="e" cx="831.6661" cy="118.4307" r="2.8675"/><circle class="e" cx="854.6061" cy="118.4307" r="2.8675"/><circle class="e" cx="877.5462" cy="118.4307" r="2.8675"/><circle class="e" cx="900.4862" cy="118.4307" r="2.8675"/><circle class="e" cx="923.4263" cy="118.4307" r="2.8675"/><circle class="e" cx="946.3663" cy="118.4307" r="2.8675"/><circle class="e" cx="244.0113" cy="389.8117" r="2.8675"/><circle class="e" cx="223.123" cy="399.2946" r="2.8675"/><circle class="e" cx="202.2347" cy="408.7775" r="2.8675"/><circle class="e" cx="181.3464" cy="418.2604" r="2.8675"/><circle class="e" cx="160.4582" cy="427.7433" r="2.8675"/><circle class="e" cx="139.5699" cy="437.2262" r="2.8675"/><circle class="e" cx="244.9725" cy="364.1819" r="2.8675"/><circle class="e" cx="224.0842" cy="373.6648" r="2.8675"/><circle class="e" cx="203.196" cy="383.1477" r="2.8675"/><circle class="e" cx="182.3077" cy="392.6306" r="2.8675"/><circle class="e" cx="161.4194" cy="402.1135" r="2.8675"/><circle class="e" cx="140.5311" cy="411.5964" r="2.8675"/><circle class="e" cx="119.6428" cy="421.0793" r="2.8675"/><circle class="e" cx="225.0455" cy="348.0351" r="2.8675"/><circle class="e" cx="204.1572" cy="357.518" r="2.8675"/><circle class="e" cx="183.2689" cy="367.0009" r="2.8675"/><circle class="e" cx="162.3806" cy="376.4838" r="2.8675"/><circle class="e" cx="141.4924" cy="385.9667" r="2.8675"/><circle class="e" cx="120.6041" cy="395.4496" r="2.8675"/><circle class="e" cx="205.1185" cy="331.8883" r="2.8675"/><circle class="e" cx="184.2302" cy="341.3712" r="2.8675"/><circle class="e" cx="163.3419" cy="350.8541" r="2.8675"/><circle class="e" cx="142.4536" cy="360.337" r="2.8675"/><circle class="e" cx="121.5653" cy="369.8199" r="2.8675"/><circle class="e" cx="100.677" cy="379.3028" r="2.8675"/><circle class="e" cx="969.3064" cy="118.4307" r="2.8675"/><circle class="e" cx="992.2464" cy="118.4307" r="2.8675"/><circle class="e" cx="1015.1865" cy="118.4307" r="2.8675"/><circle class="e" cx="1038.1265" cy="118.4307" r="2.8675"/><circle class="e" cx="1061.0666" cy="118.4307" r="2.8675"/><circle class="e" cx="820.1961" cy="141.3708" r="2.8675"/><circle class="e" cx="843.1361" cy="141.3708" r="2.8675"/><circle class="e" cx="866.0762" cy="141.3708" r="2.8675"/><circle class="e" cx="889.0162" cy="141.3708" r="2.8675"/><circle class="e" cx="911.9563" cy="141.3708" r="2.8675"/><circle class="e" cx="934.8963" cy="141.3708" r="2.8675"/><circle class="e" cx="957.8363" cy="141.3708" r="2.8675"/><circle class="e" cx="980.7764" cy="141.3708" r="2.8675"/><circle class="e" cx="1003.7164" cy="141.3708" r="2.8675"/><circle class="e" cx="1026.6565" cy="141.3708" r="2.8675"/><circle class="e" cx="1049.5965" cy="141.3708" r="2.8675"/><path class="g" d="M96.0962,57.6831H320.7024A21.6419,21.6419,0,0,1,342.3443,79.325h0a21.6419,21.6419,0,0,1-21.6419,21.6418h-114.56a11.8245,11.8245,0,0,1-11.8245-11.8245V2.2516l244.8328-73.46,231.12,20.02V79.325"/><circle class="d" cx="670.4017" cy="107.291" r="21.5063"/><circle class="f" cx="670.4017" cy="107.291" r="8.0058"/><path class="d" d="M952.4221,723.3336l-14.1423,4.88L933.3821,714.02a15.0059,15.0059,0,0,1,19.0344,9.3022C952.4165,723.3278,952.4165,723.3278,952.4221,723.3336Z"/><path class="f" d="M943.1257,742.3967a15.0036,15.0036,0,0,1-9.79-28.3653.1365.1365,0,0,1,.046-.0115l4.8977,14.1942,14.1423-4.88A15.0079,15.0079,0,0,1,943.1257,742.3967Z"/><rect class="b" x="540.7143" y="398.831" width="46.6529" height="46.6042" rx="23.3021"/><rect class="b" x="494.0614" y="492.088" width="46.6529" height="46.6042" rx="23.3021"/><rect class="b" x="528.8278" y="415.2614" width="23.7729" height="106.9031" rx="11.8864" transform="translate(-173.0586 519.6254) rotate(-45)"/><path class="f" d="M891.4456-26.4572A14.3377,14.3377,0,0,1,905.7831-12.12a86.363,86.363,0,0,0,86.2652,86.2654,14.3376,14.3376,0,0,1,0,28.6751,115.07,115.07,0,0,1-114.94-114.94A14.3377,14.3377,0,0,1,891.4456-26.4572Z"/><circle class="d" cx="111.9765" cy="490.4546" r="11.6878"/><rect class="f" x="69.1623" y="327.3029" width="67.9547" height="67.9547" rx="3" transform="matrix(0.866, 0.5, -0.5, 0.866, 194.4582, -3.1674)"/><path class="f" d="M148.7826,446.5238a2.9847,2.9847,0,0,0,2.9962-3.1825,39.93,39.93,0,0,0-79.6046,0,2.9846,2.9846,0,0,0,2.9962,3.1825Z"/><rect class="f" x="979.6969" y="412.0523" width="74.2371" height="122.454" rx="3" transform="translate(-96.3432 336.2214) rotate(-17.9405)"/><path class="e" d="M974.7894,421.8371a3.0163,3.0163,0,0,1-4.4089.792,32.749,32.749,0,0,1,34.1776-55.4727,3.0164,3.0164,0,0,1,1.2753,4.2942Z"/></svg>