<?xml version="1.0" encoding="utf-8"?>
<!-- Generator: Adobe Illustrator 24.2.3, SVG Export Plug-In . SVG Version: 6.00 Build 0)  -->
<svg version="1.1" id="Layer_1" xmlns="http://www.w3.org/2000/svg" xmlns:xlink="http://www.w3.org/1999/xlink" x="0px" y="0px"
	 viewBox="0 0 84.2 84.2" style="enable-background:new 0 0 84.2 84.2;" xml:space="preserve">
<style type="text/css">
	.st0{display:none;}
	.st1{display:inline;}
	.st2{fill:none;stroke:#0057FF;stroke-width:2.5;stroke-miterlimit:10;}
	.st3{fill:none;stroke:#0057FF;stroke-width:2.5;stroke-linecap:round;stroke-miterlimit:10;}
</style>
<g id="Layer_2_1_" class="st0">
	<g transform="translate(0,-952.36218)" class="st1">
		<path d="M43.7,955c-22.1,0-40,17.9-40,40s17.9,40,40,40s40-17.9,40-40S65.8,955,43.7,955z M43.7,959c19.9,0,36,16.1,36,36
			s-16.1,36-36,36s-36-16.1-36-36C7.7,975.1,23.8,959,43.7,959z M31.7,979c-3.3,0-6,2.7-6,6s2.7,6,6,6s6-2.7,6-6S35,979,31.7,979z
			 M55.7,979c-3.3,0-6,2.7-6,6s2.7,6,6,6s6-2.7,6-6S59,979,55.7,979z M31.7,983c1.1,0,2,0.9,2,2s-0.9,2-2,2c-1.1,0-2-0.9-2-2
			S30.6,983,31.7,983z M55.7,983c1.1,0,2,0.9,2,2s-0.9,2-2,2s-2-0.9-2-2S54.6,983,55.7,983z M47.7,1000c-4.4,0-7.6,2.1-10,3.9
			s-4.1,3.1-6,3.1c-2.5,0-4.3-0.6-5.6-1.3c-0.7-0.3-1.2-0.6-1.5-0.9c-0.2-0.1-0.3-0.3-0.4-0.3s-0.1-0.1-0.2-0.1
			c-0.1-0.1,0-0.1-0.6-0.3c-1.1-0.3-2.2,0.3-2.5,1.4c-0.2,0.9,0.1,1.8,0.9,2.2c0,0,0,0,0.1,0.1l0,0l0,0c0.1,0.1,0.3,0.2,0.5,0.4
			c0.5,0.3,1.2,0.7,2,1.2c1.7,0.8,4.2,1.7,7.4,1.7c3.6,0,6.1-2.2,8.4-3.9s4.4-3.1,7.6-3.1c5.5,0,7.5,2.1,9.5,4.3
			c0.7,0.8,2,0.9,2.8,0.1c0.8-0.7,0.9-2,0.1-2.8l0,0C58.1,1003.3,54.4,1000,47.7,1000z"/>
	</g>
</g>
<g id="Layer_1_1_" xmlns:cc="http://creativecommons.org/ns#" xmlns:dc="http://purl.org/dc/elements/1.1/" xmlns:inkscape="http://www.inkscape.org/namespaces/inkscape" xmlns:rdf="http://www.w3.org/1999/02/22-rdf-syntax-ns#" xmlns:sodipodi="http://sodipodi.sourceforge.net/DTD/sodipodi-0.dtd" xmlns:svg="http://www.w3.org/2000/svg">
	<circle class="st2" cx="42" cy="42.2" r="39.6"/>
	<circle class="st2" cx="54.2" cy="32.1" r="6"/>
	<circle class="st2" cx="30.2" cy="32.1" r="6"/>
	<path class="st3" d="M24.2,61.9c0,0,6-4.4,11.1-4.4c4.5,0,9.2,5.5,14.3,5.5c6.5,0,10.2-6.3,10.2-6.3"/>
</g>
</svg>
