<?xml version="1.0" encoding="utf-8"?>
<!-- Generator: Adobe Illustrator 24.1.2, SVG Export Plug-In . SVG Version: 6.00 Build 0)  -->
<svg version="1.1" id="Layer_1" xmlns="http://www.w3.org/2000/svg" xmlns:xlink="http://www.w3.org/1999/xlink" x="0px" y="0px"
	 viewBox="0 0 107.3 107.8" style="enable-background:new 0 0 107.3 107.8;" xml:space="preserve">
<style type="text/css">
	.st0{fill:none;stroke:#FF2D55;stroke-width:2;stroke-miterlimit:10;}
</style>
<path class="st0" d="M69.7,66c0,2.7-1.2,5-2.3,7.3c-0.6,1.1-1.1,2.2-1.4,3.2c-0.2,0.5-0.7,0.9-1.2,0.9H54.4c-0.6,0-1.2-0.5-1.3-1.1
	c-0.4-2.7-1.5-4.4-2.7-6.3c-1-1.7-2.4-3.7-3.5-6.9l-0.1-0.1c-0.5-1.2-1.1-2.6-1.6-4c-0.3-0.8-1.5-1.9-2-3c-1.1-2.1-3.3-5.2-2.1-6.2
	c0.3-0.3,1.4-0.3,1.7-0.3c1.5,0,3.7,2,4.3,4.1c2.7,3.3,2.8-0.1,2.8-0.6L50.4,31c0-0.9,1.5-2,2.4-2c0.9,0,2.5,1,2.5,2v17.8
	c0,0.3,0.3,0.4,0.5,0.2c0,0,1-1.4,1.5-1.7c1-0.6,2.7,0.3,3,1.1c0.4,1.3-0.3,2.6-0.3,2.6c0,0.1,0.1,0.1,0.2,0.1c0,0,1.3-1.2,1.9-1.5
	c0.8-0.4,2.4,0.5,2.8,1.6c0.2,0.7,0,2.1,0,2.1c-0.4,0.4,0.1,0.4,0.4,0.3c0,0,1.3-1.2,1.8-1.5c0.6-0.4,1.1,0,1.4,0.1
	c0.9,0.3,1.3,1.3,1.3,2.2L69.7,66z"/>
<circle class="st0" cx="53.7" cy="98.8" r="7.3"/>
<circle class="st0" cx="85" cy="85.6" r="7.3"/>
<circle class="st0" cx="98.1" cy="54.4" r="7.3"/>
<circle class="st0" cx="85" cy="23.1" r="7.3"/>
<circle class="st0" cx="53.7" cy="10" r="7.3"/>
<circle class="st0" cx="22.4" cy="23.1" r="7.3"/>
<circle class="st0" cx="9.3" cy="54.4" r="7.3"/>
<circle class="st0" cx="22.4" cy="85.6" r="7.3"/>
</svg>
