<?xml version="1.0" standalone="no"?>
<!DOCTYPE svg PUBLIC "-//W3C//DTD SVG 20010904//EN"
 "http://www.w3.org/TR/2001/REC-SVG-20010904/DTD/svg10.dtd">
<svg version="1.0" xmlns="http://www.w3.org/2000/svg"
 width="700.000000pt" height="700.000000pt" viewBox="0 0 700.000000 700.000000"
 preserveAspectRatio="xMidYMid meet">
<metadata>
Created by potrace 1.11, written by Peter Selinger 2001-2013
</metadata>
<g transform="translate(0.000000,700.000000) scale(0.100000,-0.100000)"
fill="#000000" stroke="none">
<path d="M1500 5205 l0 -1716 1033 4 c1003 3 1035 4 1142 25 397 76 714 236
979 491 281 272 448 591 507 966 19 118 16 370 -5 490 -142 798 -819 1380
-1681 1445 -82 6 -519 10 -1057 10 l-918 0 0 -1715z"/>
<path d="M1500 1525 l0 -1445 1997 0 c1953 0 1997 0 1978 19 -23 22 -3963
2871 -3970 2871 -3 0 -5 -650 -5 -1445z"/>
</g>
</svg>
