<svg xmlns="http://www.w3.org/2000/svg" xmlns:xlink="http://www.w3.org/1999/xlink" viewBox="0 0 532 374"><defs><style>.a,.b{fill:#fff;}.a,.c,.g,.h,.k,.l,.m,.n,.o,.s,.v{fill-rule:evenodd;}.c{fill:#d0c6ac;}.d{mask:url(#a);}.e{fill:#edb98a;}.f{mask:url(#b);}.g{fill-opacity:0.1;}.h{fill:#e6e6e6;}.i{mask:url(#c);}.j{fill:#262e33;}.k{fill:#3a4c5a;}.l{fill:#2f4351;}.m{fill:#f2f2f2;}.n{fill-opacity:0.7;}.o{fill-opacity:0.16;}.p{fill-opacity:0.6;}.q{fill:#92d9ff;}.r{mask:url(#d);}.s{fill:#944f23;}.t{mask:url(#e);}.u{fill:#4a312c;}.v{fill-opacity:0.24;}.w{fill:#e5e5ea;}.x{font-size:18px;font-family:Avenir-Roman, Avenir;}.y{letter-spacing:0em;}.z{letter-spacing:-0.02em;}.aa{letter-spacing:0em;}</style><mask id="a" x="298.8" y="129.64" width="264" height="244" maskUnits="userSpaceOnUse"><path class="a" d="M454.8,274.25v18.39h4a72,72,0,0,1,72,72v9h-200v-9a72,72,0,0,1,72-72h4V274.25a56,56,0,0,1-31.69-44.73,12,12,0,0,1-10.31-11.88v-14a12,12,0,0,1,10-11.84v-6.16h0a56,56,0,0,1,56-56h0a56,56,0,0,1,56,56v6.16a12,12,0,0,1,10,11.84v14a12,12,0,0,1-10.31,11.88A56,56,0,0,1,454.8,274.25Z"/></mask><mask id="b" x="330.8" y="129.64" width="200" height="244" maskUnits="userSpaceOnUse"><path class="a" d="M454.8,274.25v18.39h4a72,72,0,0,1,72,72v9h-200v-9a72,72,0,0,1,72-72h4V274.25a56,56,0,0,1-31.69-44.73,12,12,0,0,1-10.31-11.88v-14a12,12,0,0,1,10-11.84v-6.16h0a56,56,0,0,1,56-56h0a56,56,0,0,1,56,56v6.16a12,12,0,0,1,10,11.84v14a12,12,0,0,1-10.31,11.88A56,56,0,0,1,454.8,274.25Z"/></mask><mask id="c" x="298.8" y="263.64" width="264" height="110" maskUnits="userSpaceOnUse"><path class="a" d="M404,292.69H402.8a72,72,0,0,0-72,72v8.95h200v-8.95a72,72,0,0,0-72-72h-1.19a24.65,24.65,0,0,1,.19,3c0,13.81-12.09,25-27,25s-27-11.19-27-25A24.65,24.65,0,0,1,404,292.69Z"/></mask><mask id="d" x="298.8" y="93.64" width="264" height="280" maskUnits="userSpaceOnUse"><rect class="b" x="298.8" y="93.64" width="264" height="280"/></mask><mask id="e" x="356.8" y="111.64" width="264" height="280" maskUnits="userSpaceOnUse"><path class="a" d="M490.31,193a12,12,0,0,1,6.49,10.67v13a12,12,0,0,1-10.21,11.86,56,56,0,0,1-31.79,45.75h0v18.39h4a71.7,71.7,0,0,1,46,16.6V185.64a74,74,0,1,0-148,0V369.35a28,28,0,0,0,24-27.71V296.06a72,72,0,0,1,22-3.42h4V274.25a56.27,56.27,0,0,1-26-25.37v-62a149.58,149.58,0,0,0,28.34-12.77c15.4-8.89,28.09-19.55,36.73-30.1a86.75,86.75,0,0,0,7,15.49c8.77,15.19,21.11,26.35,33.89,32v.25c.4.07.79.16,1.18.26C488.75,192.39,489.53,192.69,490.31,193Z"/></mask></defs><path class="c" d="M454.8,274.25v18.39h4a72,72,0,0,1,72,72v9h-200v-9a72,72,0,0,1,72-72h4V274.25a56,56,0,0,1-31.69-44.73,12,12,0,0,1-10.31-11.88v-14a12,12,0,0,1,10-11.84v-6.16h0a56,56,0,0,1,56-56h0a56,56,0,0,1,56,56v6.16a12,12,0,0,1,10,11.84v14a12,12,0,0,1-10.31,11.88A56,56,0,0,1,454.8,274.25Z"/><g class="d"><rect class="e" x="298.8" y="129.64" width="264" height="244"/></g><g class="f"><path class="g" d="M486.8,208.64v23a56,56,0,1,1-112,0v-8a56,56,0,1,0,112,0Z"/></g><path class="h" d="M404,292.69H402.8a72,72,0,0,0-72,72v8.95h200v-8.95a72,72,0,0,0-72-72h-1.19a24.65,24.65,0,0,1,.19,3c0,13.81-12.09,25-27,25s-27-11.19-27-25A24.65,24.65,0,0,1,404,292.69Z"/><g class="i"><rect class="j" x="298.8" y="263.64" width="264" height="110"/></g><path class="k" d="M399.58,292.76a72,72,0,0,0-68.78,71.93v8.95h69.36a155.05,155.05,0,0,1-5.36-41.5A157.11,157.11,0,0,1,399.58,292.76Zm62.86,80.88H530.8v-8.95A72,72,0,0,0,463,292.81a156.78,156.78,0,0,1,4.77,39.33A155.05,155.05,0,0,1,462.44,373.64Z"/><path class="h" d="M479.8,349.64l9.56-7.17h0a4,4,0,0,1,4.85,0l6.59,5.13Z"/><path class="l" d="M399.8,291.64q-6,29,5,82h-16l-14-36,6-9-6-6,19-30A21.29,21.29,0,0,1,399.8,291.64Z"/><path class="l" d="M461.8,291.64q6,29-5,82h16l14-36-6-9,6-6-19-30A21.29,21.29,0,0,0,461.8,291.64Z"/><path class="m" d="M454.8,285.18c6.77,4.59,11,11.11,11,18.34,0,7.41-4.43,14.06-11.48,18.67l-5.94-4.68-4.58.33,1-3.15-.08-.06c6.1-3.14,10.08-8.29,10.08-14.12Zm-48,0c-6.77,4.59-11,11.11-11,18.34,0,7.41,4.43,14.06,11.48,18.67l5.94-4.68,4.58.33-1-3.15.08-.06c-6.1-3.14-10.08-8.29-10.08-14.12Z"/><path class="n" d="M416.8,242.64a14,14,0,0,0,14,14h0a14,14,0,0,0,14-14"/><path class="o" d="M418.8,223.64c0,4.41,5.37,8,12,8h0c6.63,0,12-3.59,12-8"/><circle class="p" cx="404.8" cy="205.64" r="6"/><path class="q" d="M399.8,210.64s-6,7.27-6,11.27a6,6,0,1,0,12,0C405.8,217.91,399.8,210.64,399.8,210.64Z"/><circle class="p" cx="456.8" cy="205.64" r="6"/><path class="p" d="M412.83,181.23c-1.48,8.39-14.09,14.18-23.24,10.43a2,2,0,0,0-2.63,1,1.88,1.88,0,0,0,1.05,2.5c11.45,4.69,26.84-2.38,28.76-13.3a1.92,1.92,0,0,0-1.64-2.2A2,2,0,0,0,412.83,181.23Z"/><path class="p" d="M448.77,181.23c1.48,8.39,14.09,14.18,23.24,10.43a2,2,0,0,1,2.63,1,1.88,1.88,0,0,1-1.05,2.5c-11.44,4.69-26.83-2.38-28.76-13.3a1.92,1.92,0,0,1,1.64-2.2A2,2,0,0,1,448.77,181.23Z"/><g class="r"><path class="s" d="M490.31,193a12,12,0,0,1,6.49,10.67v13a12,12,0,0,1-10.21,11.86,56,56,0,0,1-31.79,45.75h0v18.39h4a71.7,71.7,0,0,1,46,16.6V185.64a74,74,0,1,0-148,0V369.35a28,28,0,0,0,24-27.71V296.06a72,72,0,0,1,22-3.42h4V274.25a56.27,56.27,0,0,1-26-25.37v-62a149.58,149.58,0,0,0,28.34-12.77c15.4-8.89,28.09-19.55,36.73-30.1a86.75,86.75,0,0,0,7,15.49c8.77,15.19,21.11,26.35,33.89,32v.25c.4.07.79.16,1.18.26C488.75,192.39,489.53,192.69,490.31,193Z"/><g class="t"><rect class="u" x="356.8" y="111.64" width="264" height="280"/></g><path class="v" d="M490.31,193a44.4,44.4,0,0,0,14.49,2.81h0V185.64a73.77,73.77,0,0,0-21.67-52.33,73.77,73.77,0,0,1,21.67,52.33v123.6a71.7,71.7,0,0,0-46-16.6h-4V274.25h0a56,56,0,0,0,31.79-45.75,12,12,0,0,0,10.21-11.86v-13A12,12,0,0,0,490.31,193Zm-2.33-.91c-.39-.1-.78-.19-1.18-.26v-.25C487.19,191.73,487.59,191.9,488,192.06ZM380.8,248.88a56.27,56.27,0,0,0,26,25.37v18.39h-4a72,72,0,0,0-22,3.42Z"/></g><path class="w" d="M131.15,1C59.9,1,1.94,49.15,1.94,108.35S50.08,207.5,121.28,210.23c29,1.11,71.62-2,106.49-16.71l127.09,63.74L240.17,180.34c17.05-27.12,24-41.65,24-72.06C264.19,49.08,202.4,1,131.15,1Z"/><text class="x" transform="translate(33.72 92.64)">I feel confused using <tspan class="y" x="171.43" y="0">t</tspan><tspan x="177.78" y="0">his </tspan><tspan x="0" y="26">&amp; I don</tspan><tspan class="z" x="59.38" y="26">’</tspan><tspan x="64.06" y="26">t </tspan><tspan class="z" x="75.4" y="26">r</tspan><tspan x="81.41" y="26">ea</tspan><tspan class="aa" x="100.76" y="26">l</tspan><tspan x="105.1" y="26">ly see how </tspan><tspan x="0" y="52">every</tspan><tspan class="y" x="43.7" y="52">t</tspan><tspan x="50.06" y="52">hing is connected.</tspan></text></svg>