<svg id="Layer_1" data-name="Layer 1" xmlns="http://www.w3.org/2000/svg" xmlns:xlink="http://www.w3.org/1999/xlink" viewBox="0 0 527 391"><defs><style>.cls-1,.cls-2{fill:#fff;}.cls-11,.cls-12,.cls-16,.cls-18,.cls-19,.cls-2,.cls-22,.cls-7{fill-rule:evenodd;}.cls-3{fill:#e6e6e6;}.cls-4{mask:url(#mask);}.cls-5{fill:#65c9ff;}.cls-6{mask:url(#mask-2-2);}.cls-7{fill:#d0c6ac;}.cls-8{mask:url(#mask-3);}.cls-9{fill:#d08b5b;}.cls-10{mask:url(#mask-4-2);}.cls-11{fill-opacity:0.1;}.cls-12{fill:#b7c1db;}.cls-13{mask:url(#mask-5);}.cls-14{fill:#3c4f5c;}.cls-15{mask:url(#mask-6-3);}.cls-16{fill:#f4f4f4;}.cls-17{mask:url(#mask-7);}.cls-18{fill-opacity:0.16;}.cls-19{fill-opacity:0.7;}.cls-20{fill-opacity:0.6;}.cls-21{mask:url(#mask-8);}.cls-22{fill:#28354b;}.cls-23{mask:url(#mask-9);}.cls-24{fill:#4a312c;}.cls-25{fill:#252c2f;}.cls-26{fill:#e5e5ea;}.cls-27{font-size:18px;font-family:Avenir-Roman, Avenir;}.cls-28{letter-spacing:-0.05em;}.cls-29{letter-spacing:-0.02em;}.cls-30{letter-spacing:0em;}</style><mask id="mask" x="319.44" y="184.5" width="207.01" height="207.01" maskUnits="userSpaceOnUse"><g id="mask-2"><circle id="path-1" class="cls-1" cx="422.95" cy="288.01" r="103.51"/></g></mask><mask id="mask-2-2" x="309.09" y="150" width="227.71" height="241.51" maskUnits="userSpaceOnUse"><g id="mask-4"><path id="path-3" class="cls-2" d="M319.44,288a103.51,103.51,0,0,0,207,0H536.8V150H309.09V288Z"/></g></mask><mask id="mask-3" x="309.09" y="181.05" width="227.71" height="210.46" maskUnits="userSpaceOnUse"><g id="mask-6"><path id="path-5" class="cls-2" d="M443.65,305.78v15.87h3.45a62.1,62.1,0,0,1,62.1,62.1v7.76H336.69v-7.76a62.1,62.1,0,0,1,62.11-62.1h3.45V305.78a48.31,48.31,0,0,1-27.34-38.58A10.35,10.35,0,0,1,366,257V244.88a10.35,10.35,0,0,1,8.63-10.21v-5.32h0a48.3,48.3,0,0,1,48.3-48.3h0a48.3,48.3,0,0,1,48.3,48.3v5.32a10.35,10.35,0,0,1,8.63,10.21V257A10.35,10.35,0,0,1,471,267.2,48.33,48.33,0,0,1,443.65,305.78Z"/></g></mask><mask id="mask-4-2" x="336.69" y="181.05" width="172.51" height="210.46" maskUnits="userSpaceOnUse"><g id="mask-6-2" data-name="mask-6"><path id="path-5-2" data-name="path-5" class="cls-2" d="M443.65,305.78v15.87h3.45a62.1,62.1,0,0,1,62.1,62.1v7.76H336.69v-7.76a62.1,62.1,0,0,1,62.11-62.1h3.45V305.78a48.31,48.31,0,0,1-27.34-38.58A10.35,10.35,0,0,1,366,257V244.88a10.35,10.35,0,0,1,8.63-10.21v-5.32h0a48.3,48.3,0,0,1,48.3-48.3h0a48.3,48.3,0,0,1,48.3,48.3v5.32a10.35,10.35,0,0,1,8.63,10.21V257A10.35,10.35,0,0,1,471,267.2,48.33,48.33,0,0,1,443.65,305.78Z"/></g></mask><mask id="mask-5" x="309.09" y="296.63" width="227.71" height="94.88" maskUnits="userSpaceOnUse"><g id="react-mask-241"><path id="react-path-240" class="cls-2" d="M402.25,307.91c-15.46,1.73-27.36,6.45-27.6,18.61a62.13,62.13,0,0,0-38,57.23h0v7.76H509.2v-7.76a62.12,62.12,0,0,0-37.95-57.23c-.24-12.16-12.14-16.88-27.6-18.61v16.32h0A20.71,20.71,0,0,1,423,344.94h0a20.71,20.71,0,0,1-20.7-20.71Z"/></g></mask><mask id="mask-6-3" x="336.69" y="307.91" width="172.51" height="83.61" maskUnits="userSpaceOnUse"><g id="react-mask-241-2" data-name="react-mask-241"><path id="react-path-240-2" data-name="react-path-240" class="cls-2" d="M402.25,307.91c-15.46,1.73-27.36,6.45-27.6,18.61a62.13,62.13,0,0,0-38,57.23h0v7.76H509.2v-7.76a62.12,62.12,0,0,0-37.95-57.23c-.24-12.16-12.14-16.88-27.6-18.61v16.32h0A20.71,20.71,0,0,1,423,344.94h0a20.71,20.71,0,0,1-20.7-20.71Z"/></g></mask><mask id="mask-7" x="336.69" y="307.61" width="172.51" height="83.9" maskUnits="userSpaceOnUse"><g id="react-mask-241-3" data-name="react-mask-241"><path id="react-path-240-3" data-name="react-path-240" class="cls-2" d="M402.25,307.91c-15.46,1.73-27.36,6.45-27.6,18.61a62.13,62.13,0,0,0-38,57.23h0v7.76H509.2v-7.76a62.12,62.12,0,0,0-37.95-57.23c-.24-12.16-12.14-16.88-27.6-18.61v16.32h0A20.71,20.71,0,0,1,423,344.94h0a20.71,20.71,0,0,1-20.7-20.71Z"/></g></mask><mask id="mask-8" x="309.09" y="150" width="227.71" height="241.51" maskUnits="userSpaceOnUse"><g id="react-mask-232"><rect id="react-path-234" class="cls-1" x="309.09" y="150" width="227.71" height="241.51"/></g></mask><mask id="mask-9" x="308.23" y="150" width="227.71" height="241.51" maskUnits="userSpaceOnUse"><g id="react-mask-231"><path id="react-path-233" class="cls-2" d="M466.66,183.6c4.67-4.27,5.79-12.93,3.14-18.55-3.25-6.9-9.85-7.76-16.17-4.73-6,2.86-11.26,3.82-17.79,2.43-6.26-1.33-12.2-3.67-18.67-4.06A35,35,0,0,0,389,170a30.28,30.28,0,0,0-3.55,5,16,16,0,0,0-2.15,4.53c-.17.77.14,2.67-.24,3.31s-2,1.3-2.65,1.81a21.23,21.23,0,0,0-3.6,3.49,25.09,25.09,0,0,0-4.63,9.12c-3.54,11.42-3.84,25,.73,36.23.61,1.49,2.5,4.61,3.61,1.41.22-.63-.28-2.75-.28-3.39,0-2.35,1.3-17.88,6.94-26.58,1.83-2.84,10.33-13.44,12.06-13.53.92,1.46,10.25,10.79,34.45,9.7,10.92-.5,19.32-5.4,21.34-7.53.89,4.77,11.21,11.92,12.78,14.86,4.54,8.49,5.55,26.14,7.28,26.1s3-4.52,3.34-5.37c2.65-6.36,3.1-14.35,2.82-21.18C476.85,199.14,473.21,189.63,466.66,183.6Z"/></g></mask></defs><g id="Avataaar"><g id="Avataaar_Circle" data-name="Avataaar/Circle"><g id="Circle"><g id="Circle-Background"><circle id="path-1-2" data-name="path-1" class="cls-3" cx="422.95" cy="288.01" r="103.51"/></g><g class="cls-4"><g id="Color_Palette_Blue-01" data-name="Color/Palette/Blue-01"><rect id="_Color" data-name="ðŸ–Color" class="cls-5" x="319.44" y="184.5" width="207.01" height="207.01"/></g></g></g><g class="cls-6"><g id="Avataaar-2" data-name="Avataaar"><g id="Body"><path id="path-5-3" data-name="path-5" class="cls-7" d="M443.65,305.78v15.87h3.45a62.1,62.1,0,0,1,62.1,62.1v7.76H336.69v-7.76a62.1,62.1,0,0,1,62.11-62.1h3.45V305.78a48.31,48.31,0,0,1-27.34-38.58A10.35,10.35,0,0,1,366,257V244.88a10.35,10.35,0,0,1,8.63-10.21v-5.32h0a48.3,48.3,0,0,1,48.3-48.3h0a48.3,48.3,0,0,1,48.3,48.3v5.32a10.35,10.35,0,0,1,8.63,10.21V257A10.35,10.35,0,0,1,471,267.2,48.33,48.33,0,0,1,443.65,305.78Z"/><g class="cls-8"><g id="Skin_-03-Brown" data-name="Skin/ðŸ‘¶ðŸ½-03-Brown"><g id="Color"><rect class="cls-9" x="309.09" y="181.05" width="227.71" height="210.46"/></g></g></g><g class="cls-10"><path id="Neck-Shadow" class="cls-11" d="M471.25,249.19V269a48.3,48.3,0,0,1-96.6,0v-6.9a48.3,48.3,0,0,0,96.6,0Z"/></g></g><g id="Clothing_Hoodie" data-name="Clothing/Hoodie"><g id="Hoodie"><path id="react-path-240-4" data-name="react-path-240" class="cls-12" d="M402.25,307.91c-15.46,1.73-27.36,6.45-27.6,18.61a62.13,62.13,0,0,0-38,57.23h0v7.76H509.2v-7.76a62.12,62.12,0,0,0-37.95-57.23c-.24-12.16-12.14-16.88-27.6-18.61v16.32h0A20.71,20.71,0,0,1,423,344.94h0a20.71,20.71,0,0,1-20.7-20.71Z"/></g><g class="cls-13"><g id="Color_Palette_Gray-01" data-name="Color/Palette/Gray-01"><rect id="_Color-2" data-name="ðŸ–Color" class="cls-14" x="309.09" y="296.63" width="227.71" height="94.88"/></g></g><g class="cls-15"><path id="Straps" class="cls-16" d="M397.07,349.89v41.62h-6V346.79A57.11,57.11,0,0,0,397.07,349.89Zm57.79-3.1v34.8a3,3,0,0,1-6,0v-31.7A55.23,55.23,0,0,0,454.86,346.79Z"/></g><g class="cls-17"><path id="Shadow" class="cls-18" d="M387.55,307.61c-13,2.45-22,7.35-22,16.89,0,17,28.5,30.79,57.36,30.79s57.36-13.79,57.36-30.79c0-9.54-9-14.44-22-16.89,7.83,2.89,12.9,7.75,12.9,15.83,0,17.59-24,31.85-48.3,31.85s-48.3-14.26-48.3-31.85C374.65,315.36,379.71,310.5,387.55,307.61Z"/></g></g><g id="Face"><g id="Mouth_Default" data-name="Mouth/Default"><path id="Mouth" class="cls-19" d="M410.87,278.52A12.07,12.07,0,0,0,423,290.59h0A12.06,12.06,0,0,0,435,278.52"/></g><g id="Nose_Default" data-name="Nose/Default"><path id="Nose" class="cls-18" d="M412.6,262.13c0,3.81,4.63,6.9,10.35,6.9h0c5.72,0,10.35-3.09,10.35-6.9"/></g><g id="Eyes_Default-_" data-name="Eyes/Default-ðŸ˜€"><circle id="Eye" class="cls-20" cx="400.52" cy="246.6" r="5.18"/><circle id="Eye-2" data-name="Eye" class="cls-20" cx="445.37" cy="246.6" r="5.18"/></g><g id="Eyebrow_Outline_Default" data-name="Eyebrow/Outline/Default"><g id="I-Browse"><path id="Eyebrow" class="cls-20" d="M388.13,235.53c3.37-4.75,12.63-7.42,20.61-5.46a1.72,1.72,0,0,0,.82-3.35c-9.26-2.27-20,.81-24.24,6.81a1.72,1.72,0,1,0,2.81,2Z"/><path id="Eyebrow-2" data-name="Eyebrow" class="cls-20" d="M457.77,235.53c-3.38-4.75-12.63-7.42-20.61-5.46a1.72,1.72,0,1,1-.82-3.35c9.26-2.27,20,.81,24.24,6.81a1.72,1.72,0,1,1-2.81,2Z"/></g></g></g><g id="Top"><g class="cls-21"><g id="Top_Short-Hair_Short-Waved" data-name="Top/Short-Hair/Short-Waved"><g id="Short-Hair"><path id="react-path-233-2" data-name="react-path-233" class="cls-22" d="M466.66,183.6c4.67-4.27,5.79-12.93,3.14-18.55-3.25-6.9-9.85-7.76-16.17-4.73-6,2.86-11.26,3.82-17.79,2.43-6.26-1.33-12.2-3.67-18.67-4.06A35,35,0,0,0,389,170a30.28,30.28,0,0,0-3.55,5,16,16,0,0,0-2.15,4.53c-.17.77.14,2.67-.24,3.31s-2,1.3-2.65,1.81a21.23,21.23,0,0,0-3.6,3.49,25.09,25.09,0,0,0-4.63,9.12c-3.54,11.42-3.84,25,.73,36.23.61,1.49,2.5,4.61,3.61,1.41.22-.63-.28-2.75-.28-3.39,0-2.35,1.3-17.88,6.94-26.58,1.83-2.84,10.33-13.44,12.06-13.53.92,1.46,10.25,10.79,34.45,9.7,10.92-.5,19.32-5.4,21.34-7.53.89,4.77,11.21,11.92,12.78,14.86,4.54,8.49,5.55,26.14,7.28,26.1s3-4.52,3.34-5.37c2.65-6.36,3.1-14.35,2.82-21.18C476.85,199.14,473.21,189.63,466.66,183.6Z"/></g><g class="cls-23"><g id="Skin_-03-Brown-2" data-name="Skin/ðŸ‘¶ðŸ½-03-Brown"><g id="Color-2" data-name="Color"><rect class="cls-24" x="308.23" y="150" width="227.71" height="241.51"/></g></g></g><g id="Top__Resources_Prescription-02" data-name="Top/_Resources/Prescription-02"><g id="Wayfarers"><path id="Left" class="cls-25" d="M396.21,264.72h-2.38c-12,0-19.18-6.61-19.18-17.68,0-8.95,1.56-17.69,20.29-17.69h2.54c18.73,0,20.29,8.74,20.29,17.69C417.77,257.45,408.91,264.72,396.21,264.72Zm-1.39-30.19c-16.72,0-16.72,5.9-16.72,13.37,0,6.1,2.68,13.37,15.5,13.37h2.61c10.67,0,18.11-5.5,18.11-13.37,0-7.47,0-13.37-16.72-13.37Z"/><path id="Right" class="cls-25" d="M449.69,264.72h-2.38c-12,0-19.19-6.61-19.19-17.68,0-8.95,1.57-17.69,20.3-17.69H451c18.72,0,20.29,8.74,20.29,17.69C471.25,257.45,462.39,264.72,449.69,264.72Zm-1.4-30.19c-16.72,0-16.72,5.9-16.72,13.37,0,6.1,2.69,13.37,15.5,13.37h2.62c10.66,0,18.11-5.5,18.11-13.37,0-7.47,0-13.37-16.72-13.37Z"/><path id="Stuff" class="cls-25" d="M369.43,234.33c.6-.58,7.12-5,25.49-5,15.39,0,18.65,1.6,23.59,4l.36.17a14.33,14.33,0,0,0,4.15.79,14.61,14.61,0,0,0,3.93-.75c5.63-2.74,11.15-4.23,24-4.23,18.37,0,24.89,4.4,25.49,5a2.51,2.51,0,0,1,2.54,2.49v2.49a2.51,2.51,0,0,1-2.54,2.49s-6,0-6,2.49-1.69-3.6-1.69-5v-2.42A45.49,45.49,0,0,0,451,233.48c-10.21,0-15.3,1.81-19.66,3.61l.05.12v1.71l-1.91,4.62-2.36-.94a13.18,13.18,0,0,0-1.3-.39,12,12,0,0,0-5.17-.23,7.09,7.09,0,0,0-1.63.54l-2.28,1.12-2.28-4.46.1-2,.07-.16c-3.76-1.76-7.23-3.56-19.68-3.56a45.49,45.49,0,0,0-17.84,3.41v2.42c0,1.38-2.55,7.47-2.55,5s-5.1-2.49-5.1-2.49a2.52,2.52,0,0,1-2.55-2.49v-2.49A2.52,2.52,0,0,1,369.43,234.33Z"/></g></g></g></g></g></g></g></g></g><path class="cls-26" d="M130.15,1C58.9,1,.94,49.15.94,108.35S49.08,207.5,120.28,210.23c29,1.11,71.62-2,106.49-16.71l127.09,63.74L239.17,180.34c17.05-27.12,24-41.65,24-72.06C263.19,49.08,201.4,1,130.15,1Z"/><text class="cls-27" transform="translate(34.72 92.64)">Hmmm... <tspan class="cls-28" x="79.02" y="0">W</tspan><tspan x="95.51" y="0">e </tspan><tspan class="cls-29" x="110.52" y="0">r</tspan><tspan x="116.53" y="0">ea</tspan><tspan class="cls-30" x="135.88" y="0">l</tspan><tspan x="140.22" y="0">ly need </tspan><tspan x="0" y="26">to make mo</tspan><tspan class="cls-29" x="96.75" y="26">r</tspan><tspan x="102.76" y="26">e informed </tspan><tspan x="0" y="52">design decisions</tspan></text></svg>