<svg xmlns="http://www.w3.org/2000/svg" viewBox="0 0 170 163"><defs><style>.a{fill:none;stroke:#00c58a;stroke-miterlimit:10;stroke-width:6px;}.b{fill:#ececf0;}</style></defs><circle class="a" cx="85.5" cy="14.5" r="11"/><path class="a" d="M103.5,51a18,18,0,0,0-36,0Z"/><circle class="a" cx="21.5" cy="123.5" r="11"/><path class="a" d="M39.5,160a18,18,0,0,0-36,0Z"/><circle class="a" cx="148.5" cy="123.5" r="11"/><path class="a" d="M166.5,160a18,18,0,0,0-36,0Z"/><path class="a" d="M55,139c4.34,0,4.34,4.8,8.69,4.8S68,139,72.39,139s4.34,4.8,8.69,4.8,4.35-4.8,8.7-4.8,4.35,4.8,8.7,4.8,4.35-4.8,8.7-4.8,4.35,4.8,8.7,4.8"/><path class="a" d="M112.81,69.19c1.63,2.72-2.49,5.19-.85,7.9s5.74.24,7.37,3-2.48,5.18-.85,7.9,5.75.24,7.38,3-2.48,5.19-.85,7.9,5.75.24,7.38,3-2.48,5.19-.85,7.91"/><path class="a" d="M65.66,71.67c-1.63,2.71-5.75.24-7.38,3s2.48,5.19.85,7.9-5.74.24-7.38,3,2.49,5.19.86,7.9-5.75.24-7.38,3,2.48,5.19.84,7.91-5.74.24-7.38,3"/><rect class="b" x="36" y="86" width="35" height="6"/><rect class="b" x="67.5" y="133.5" width="35" height="8" transform="translate(222.5 52.5) rotate(90)"/><rect class="b" x="105" y="86" width="35" height="7"/></svg>