<svg xmlns="http://www.w3.org/2000/svg" viewBox="0 0 200 165"><defs><style>.a{fill:none;stroke:#00c58a;stroke-miterlimit:10;stroke-width:6px;}.b{fill:#00c58a;}</style></defs><rect class="a" x="4" y="3.3" width="192" height="158.4" rx="20.05"/><path class="b" d="M37.22,29.59h4l9.55,21.94H45.31l-1.89-4.65H34.9l-1.83,4.65H27.73ZM39.08,36l-2.67,6.82h5.37Z"/><path class="b" d="M69.66,34.79l-4.4,3.88-2.63-3,7.16-6h4.34V51.53H69.66Z"/><path class="b" d="M90.61,46.6,99.13,39a13.87,13.87,0,0,0,1.3-1.34,2.51,2.51,0,0,0,.66-1.73,2.1,2.1,0,0,0-.81-1.75,2.94,2.94,0,0,0-1.89-.64,2.58,2.58,0,0,0-2,.81,3.22,3.22,0,0,0-.82,2l-4.65-.34a7.58,7.58,0,0,1,.71-3,6.18,6.18,0,0,1,1.64-2.09,6.92,6.92,0,0,1,2.41-1.26,10.14,10.14,0,0,1,3-.42,9.05,9.05,0,0,1,2.79.42,6.53,6.53,0,0,1,2.26,1.24,5.69,5.69,0,0,1,1.5,2.06,7.2,7.2,0,0,1,.55,2.89,7.87,7.87,0,0,1-.22,1.9,6.51,6.51,0,0,1-.61,1.55,7,7,0,0,1-.91,1.29,15.59,15.59,0,0,1-1.15,1.15l-6.66,5.73h9.73v4.09H90.61Z"/><path class="b" d="M119.67,29.59h8.19a19.74,19.74,0,0,1,2.86.2,7.78,7.78,0,0,1,2.59.8,5,5,0,0,1,1.86,1.69,5.18,5.18,0,0,1,.72,2.89,4.61,4.61,0,0,1-1,3.08A5.71,5.71,0,0,1,132.1,40v.06a6.4,6.4,0,0,1,2,.61,5.13,5.13,0,0,1,1.52,1.15,4.91,4.91,0,0,1,1,1.62,5.9,5.9,0,0,1,.34,2,5.28,5.28,0,0,1-.75,2.9,5.72,5.72,0,0,1-1.92,1.87,8.13,8.13,0,0,1-2.65,1,14,14,0,0,1-2.93.31h-9Zm4.84,8.77H128a5.08,5.08,0,0,0,1.1-.12,3.18,3.18,0,0,0,1-.41,2.07,2.07,0,0,0,.7-.74,2.29,2.29,0,0,0,.26-1.12,2,2,0,0,0-.3-1.13,2,2,0,0,0-.76-.7,3.6,3.6,0,0,0-1.05-.35,5.67,5.67,0,0,0-1.15-.11h-3.28Zm0,9.08h4.34a5.5,5.5,0,0,0,1.13-.12,2.92,2.92,0,0,0,1-.44,2.26,2.26,0,0,0,1-2,1.94,1.94,0,0,0-.39-1.26,2.33,2.33,0,0,0-1-.72,5.29,5.29,0,0,0-1.27-.35,9.83,9.83,0,0,0-1.27-.09h-3.66Z"/><path class="b" d="M148.58,40.56a12.32,12.32,0,0,1,.89-4.77,10.46,10.46,0,0,1,2.46-3.65,10.86,10.86,0,0,1,3.75-2.31,14.47,14.47,0,0,1,9.49,0,11.05,11.05,0,0,1,3.75,2.31,10.59,10.59,0,0,1,2.46,3.65,13.23,13.23,0,0,1,0,9.54A10.59,10.59,0,0,1,168.92,49a11.05,11.05,0,0,1-3.75,2.31,14.47,14.47,0,0,1-9.49,0A10.86,10.86,0,0,1,151.93,49a10.46,10.46,0,0,1-2.46-3.65A12.32,12.32,0,0,1,148.58,40.56Zm5,0a8.1,8.1,0,0,0,.48,2.84,6.54,6.54,0,0,0,1.38,2.23,6.28,6.28,0,0,0,2.16,1.47,7.69,7.69,0,0,0,5.61,0,6.24,6.24,0,0,0,2.15-1.47,6.54,6.54,0,0,0,1.38-2.23,8.58,8.58,0,0,0,0-5.66,6.44,6.44,0,0,0-1.38-2.25A6.24,6.24,0,0,0,163.23,34a7.69,7.69,0,0,0-5.61,0,6.28,6.28,0,0,0-2.16,1.47,6.44,6.44,0,0,0-1.38,2.25A8.11,8.11,0,0,0,153.6,40.56Z"/><path class="b" d="M37.25,76.79l-4.4,3.88-2.64-3,7.16-6h4.34V93.53H37.25Z"/><path class="b" d="M61.19,88.6,69.72,81A16.73,16.73,0,0,0,71,79.61a2.55,2.55,0,0,0,.65-1.73,2.1,2.1,0,0,0-.81-1.75A2.94,2.94,0,0,0,69,75.49a2.59,2.59,0,0,0-2,.81,3.22,3.22,0,0,0-.82,2l-4.65-.34a7.58,7.58,0,0,1,.71-3,6.2,6.2,0,0,1,1.65-2.09,6.88,6.88,0,0,1,2.4-1.26,10.24,10.24,0,0,1,3-.42,9.05,9.05,0,0,1,2.79.42,6.44,6.44,0,0,1,2.26,1.24,5.83,5.83,0,0,1,1.51,2.06,7.2,7.2,0,0,1,.54,2.89,7.4,7.4,0,0,1-.22,1.9,6.1,6.1,0,0,1-.6,1.55,7,7,0,0,1-.92,1.29c-.35.39-.73.77-1.14,1.15l-6.67,5.73H76.5v4.09H61.19Z"/><path class="b" d="M91.44,71.59h4.84V89.07h9v4.46H91.44Z"/><path class="b" d="M132.75,77a3.39,3.39,0,0,0-1.6-1.1,5.63,5.63,0,0,0-1.9-.36,4.69,4.69,0,0,0-1.09.13,4.25,4.25,0,0,0-1,.38,2.39,2.39,0,0,0-.81.7,1.82,1.82,0,0,0-.31,1.06,1.73,1.73,0,0,0,.75,1.51,6.51,6.51,0,0,0,1.87.9c.76.25,1.57.5,2.44.75a9.92,9.92,0,0,1,2.43,1,5.83,5.83,0,0,1,1.87,1.83,5.54,5.54,0,0,1,.75,3.07,7.1,7.1,0,0,1-.68,3.19,6.4,6.4,0,0,1-1.85,2.26,7.81,7.81,0,0,1-2.69,1.34,12.44,12.44,0,0,1-7.21-.22,9.87,9.87,0,0,1-3.41-2.11l3.44-3.78a5.18,5.18,0,0,0,1.87,1.54,5.3,5.3,0,0,0,3.54.4,3.68,3.68,0,0,0,1.08-.42,2.43,2.43,0,0,0,.78-.71,1.76,1.76,0,0,0,.29-1,1.84,1.84,0,0,0-.76-1.56,7,7,0,0,0-1.9-1c-.77-.27-1.59-.54-2.48-.8a10.85,10.85,0,0,1-2.48-1.09,5.86,5.86,0,0,1-1.91-1.8,5.09,5.09,0,0,1-.76-2.94,6.49,6.49,0,0,1,2.56-5.33,8.05,8.05,0,0,1,2.68-1.35,11,11,0,0,1,3.13-.45,12.39,12.39,0,0,1,3.6.52,8.57,8.57,0,0,1,3.13,1.77Z"/><path class="b" d="M157.92,71.59h4l9.55,21.94H166l-1.89-4.65h-8.53l-1.83,4.65h-5.33ZM159.78,78l-2.67,6.82h5.37Z"/><path class="b" d="M30.09,113.59h4.84v8.18h9.39v-8.18h4.84v21.94H44.32v-9.48H34.93v9.48H30.09Z"/><path class="b" d="M120.08,113.59h4.84v9.11l8.53-9.11h6.32L130,123.78l10.61,11.75h-6.76l-8.93-10.41v10.41h-4.84Z"/><path class="b" d="M167,127.91a16.66,16.66,0,0,1-.26,2.94,6.76,6.76,0,0,1-1,2.53,5.37,5.37,0,0,1-2.13,1.77,8.38,8.38,0,0,1-3.61.66,7.55,7.55,0,0,1-4.4-1.24,5.83,5.83,0,0,1-2.32-3.87l4.43-1.09a2.07,2.07,0,0,0,.73,1.37,2.11,2.11,0,0,0,1.44.55,1.86,1.86,0,0,0,1.3-.41,2.45,2.45,0,0,0,.68-1,4.83,4.83,0,0,0,.27-1.35c0-.49,0-.94,0-1.35V113.31H167Z"/><path class="b" d="M62.12,119.32a5.84,5.84,0,0,1,.57-2.65,5.44,5.44,0,0,1,1.58-1.89,7.17,7.17,0,0,1,2.34-1.13,11.2,11.2,0,0,1,5.71,0,6.88,6.88,0,0,1,2.32,1.13,5.67,5.67,0,0,1,1.58,1.89,5.6,5.6,0,0,1,.59,2.65,4.88,4.88,0,0,1-1,3.07,5.21,5.21,0,0,1-2.75,1.8v.06a5.14,5.14,0,0,1,4.09,5.34,6,6,0,0,1-.63,2.79,5.8,5.8,0,0,1-1.71,2,7.81,7.81,0,0,1-2.46,1.19,10.82,10.82,0,0,1-5.83,0,7.81,7.81,0,0,1-2.46-1.19,5.9,5.9,0,0,1-1.71-2,6,6,0,0,1-.63-2.79,5.14,5.14,0,0,1,4.09-5.34v-.06a5.18,5.18,0,0,1-2.74-1.8A4.82,4.82,0,0,1,62.12,119.32Zm4.28,9.61a2.64,2.64,0,0,0,.83,2,3.52,3.52,0,0,0,4.47,0,2.61,2.61,0,0,0,.83-2,2.64,2.64,0,0,0-.83-2,3.49,3.49,0,0,0-4.47,0A2.67,2.67,0,0,0,66.4,128.93Zm.37-9a2.31,2.31,0,0,0,.74,1.73,3,3,0,0,0,3.91,0,2.37,2.37,0,0,0,0-3.44,3,3,0,0,0-3.91,0A2.3,2.3,0,0,0,66.77,120Z"/><path class="b" d="M96.17,121.82h1.52a8.93,8.93,0,0,0,1.27-.09,3.48,3.48,0,0,0,1.13-.36,2.09,2.09,0,0,0,.82-.74,2.26,2.26,0,0,0,.31-1.26,2,2,0,0,0-.79-1.64,2.92,2.92,0,0,0-1.94-.65,2.71,2.71,0,0,0-1.8.59,2.77,2.77,0,0,0-.93,1.45l-5.11-1.05a7.16,7.16,0,0,1,1.11-2.43A6.22,6.22,0,0,1,93.53,114a8,8,0,0,1,2.28-.92,12,12,0,0,1,2.65-.29,10.88,10.88,0,0,1,2.81.36,6.9,6.9,0,0,1,2.37,1.11,5.69,5.69,0,0,1,1.63,1.91,5.79,5.79,0,0,1,.6,2.73,5.13,5.13,0,0,1-1,3.13,4.4,4.4,0,0,1-2.79,1.67v.09a4.48,4.48,0,0,1,1.75.59,4.77,4.77,0,0,1,2.09,2.7,5.84,5.84,0,0,1,.28,1.83,6.24,6.24,0,0,1-.63,2.88,6,6,0,0,1-1.71,2.06,7.27,7.27,0,0,1-2.51,1.23,11.23,11.23,0,0,1-3,.4,9.15,9.15,0,0,1-5.07-1.36,6.65,6.65,0,0,1-2.81-4.31l4.9-1.15a3.32,3.32,0,0,0,1,1.86,3.22,3.22,0,0,0,2.25.68,2.88,2.88,0,0,0,2.24-.79,2.84,2.84,0,0,0,.73-2,2.13,2.13,0,0,0-1.39-2.2,4.64,4.64,0,0,0-1.4-.29c-.51,0-1-.05-1.55-.05H96.17Z"/></svg>