<svg xmlns="http://www.w3.org/2000/svg" viewBox="0 0 200 164"><defs><style>.a{fill:#00c58a;fill-rule:evenodd;}.b{fill:none;stroke:#00c58a;stroke-miterlimit:10;stroke-width:6px;}</style></defs><path class="a" d="M23.21,65.16H72.94c12.76,0,23,10.84,23,23.6v35.7a23.27,23.27,0,0,1-23,23H36.6L5.35,164l4.46-21C4.08,138.49.25,132.12.25,124.46V88.76C.25,76,10.45,65.16,23.21,65.16Z"/><path class="b" d="M47.12,55.6V36.43A33.43,33.43,0,0,1,80.55,3h83.77a33.43,33.43,0,0,1,33.43,33.43V97.37a33.43,33.43,0,0,1-33.43,33.43h-59"/><path class="b" d="M119.87,35.07c9.59-.52,17.87,1.88,17.87,14.37,0,21-27.45,18.66-27.45,18.66v3.19l29.25,32.2"/><line class="b" x1="155.94" y1="35.07" x2="105.37" y2="35.07"/><line class="b" x1="105.35" y1="49.44" x2="155.67" y2="49.44"/></svg>