<?xml version="1.0" encoding="utf-8"?>
<!-- Generator: Adobe Illustrator 24.2.3, SVG Export Plug-In . SVG Version: 6.00 Build 0)  -->
<svg version="1.1" id="Layer_1" xmlns="http://www.w3.org/2000/svg" xmlns:xlink="http://www.w3.org/1999/xlink" x="0px" y="0px"
	 viewBox="0 0 70 73.9" style="enable-background:new 0 0 70 73.9;" xml:space="preserve">
<style type="text/css">
	.st0{display:none;}
	.st1{display:inline;}
	.st2{fill:none;stroke:#FFFFFF;stroke-width:2.5;stroke-linejoin:round;stroke-miterlimit:10;}
</style>
<g id="Layer_1_1_" class="st0">
	<path class="st1" d="M47.5,2.4c-3.7-2-8.3-0.7-10.3,2.9l0,0l-30.1,54c0,0.1-0.1,0.2-0.1,0.3v0.1v0.1l1.1,11.9
		c0,0.3,0.2,0.5,0.4,0.6c0.1,0.1,0.3,0.1,0.4,0.1s0.2,0,0.3-0.1L19.9,67l0,0l0,0c0.1-0.1,0.2-0.2,0.3-0.3l28.1-50.4l0,0l2-3.6
		C52.5,9,51.2,4.4,47.5,2.4z M46.6,16.2l-27.4,49l-4.5-2.5l27.3-49L46.6,16.2z M13.4,61.9l-4.6-2.5l27.4-49l4.5,2.5L13.4,61.9z
		 M8.7,61.1l9.2,5.1l-8.4,4.1L8.7,61.1z M49.1,11.9l-1.6,2.9l-5.3-2.9l0,0L37,9l1.6-2.9c1.6-2.9,5.3-4,8.2-2.4S50.7,9,49.1,11.9z"/>
	<path class="st1" d="M16.3,27.7v-14c0-0.4-0.4-0.8-0.8-0.8h-14c-0.4,0-0.8,0.4-0.8,0.8v14c0,0.4,0.4,0.8,0.8,0.8h14
		C16,28.4,16.3,28.1,16.3,27.7z M14.7,26.9H2.3V14.5h12.4V26.9z"/>
	<path class="st1" d="M42.4,52.2c-4.3,0-7.8,3.5-7.8,7.8s3.5,7.8,7.8,7.8s7.8-3.5,7.8-7.8l0,0C50.1,55.6,46.7,52.2,42.4,52.2z
		 M42.4,66.2c-3.4,0-6.2-2.8-6.2-6.2s2.8-6.2,6.2-6.2s6.2,2.7,6.2,6.1C48.6,63.3,45.9,66.1,42.4,66.2C42.4,66.1,42.4,66.1,42.4,66.2
		L42.4,66.2z"/>
	<path class="st1" d="M69.3,28.9c-0.1-0.2-0.4-0.4-0.7-0.4H52.9c-0.4,0-0.8,0.3-0.8,0.8c0,0.2,0,0.3,0.1,0.4l7.9,12.9
		c0.2,0.4,0.7,0.5,1.1,0.3c0.1-0.1,0.2-0.2,0.3-0.3l7.9-12.8C69.5,29.5,69.5,29.2,69.3,28.9z M60.8,40.7l-6.5-10.5h13L60.8,40.7z"/>
</g>
<g id="Layer_2_1_">
	<path class="st2" d="M7.1,59.3L35.2,8.9c3.4-7.4,9.4-8,12-6.6c4.9,2.5,4.9,7.8,1.1,14L20.2,66.7L8.5,72.3L7.1,59.3z"/>
	<line class="st2" x1="7.1" y1="59.3" x2="20.2" y2="66.7"/>
	<line class="st2" x1="35.2" y1="8.9" x2="48.3" y2="16.3"/>
	<line class="st2" x1="13.7" y1="63" x2="41.8" y2="12.9"/>
	<circle class="st2" cx="42.5" cy="59.8" r="6.8"/>
	<polygon class="st2" points="68.6,29 53.1,29 60.8,42.5 	"/>
	<rect x="1.7" y="13.7" class="st2" width="14" height="14"/>
</g>
</svg>
