<?xml version="1.0" encoding="utf-8"?>
<!-- Generator: Adobe Illustrator 24.1.2, SVG Export Plug-In . SVG Version: 6.00 Build 0)  -->
<svg version="1.1" xmlns="http://www.w3.org/2000/svg" xmlns:xlink="http://www.w3.org/1999/xlink" x="0px" y="0px"
	 viewBox="0 0 91.8 43.2" style="enable-background:new 0 0 91.8 43.2;" xml:space="preserve">
<style type="text/css">
	.st0{display:none;}
	.st1{display:inline;}
	.st2{fill:none;stroke:#FF4674;stroke-width:0.75;stroke-miterlimit:10;}
	.st3{fill:#FF4674;}
</style>
<g id="Layer_1" class="st0">
	<g class="st1">
		<path d="M25.7,2.7h16.8c1,0,1.8,0.8,1.8,1.8v0c0,1-0.8,1.8-1.8,1.8H25.7c-1,0-1.8-0.8-1.8-1.8v0C23.9,3.6,24.7,2.7,25.7,2.7z"/>
		<path d="M19.3,39.1H2.5c-1,0-1.8,0.8-1.8,1.8c0,1,0.8,1.8,1.8,1.8h16.8c1,0,1.8-0.8,1.8-1.8C21.1,39.9,20.3,39.1,19.3,39.1z
			 M19.3,42.4H2.5c-0.8,0-1.4-0.6-1.4-1.4c0-0.8,0.6-1.4,1.4-1.4h16.8c0.8,0,1.4,0.6,1.4,1.4C20.7,41.7,20.1,42.4,19.3,42.4z"/>
		<path d="M25.7,10h16.8c1,0,1.8,0.8,1.8,1.8v0c0,1-0.8,1.8-1.8,1.8H25.7c-1,0-1.8-0.8-1.8-1.8v0C23.9,10.8,24.7,10,25.7,10z"/>
		<path d="M25.7,17.3h16.8c1,0,1.8,0.8,1.8,1.8v0c0,1-0.8,1.8-1.8,1.8H25.7c-1,0-1.8-0.8-1.8-1.8v0C23.9,18.1,24.7,17.3,25.7,17.3z"
			/>
		<path d="M25.7,24.6h16.8c1,0,1.8,0.8,1.8,1.8v0c0,1-0.8,1.8-1.8,1.8H25.7c-1,0-1.8-0.8-1.8-1.8v0C23.9,25.4,24.7,24.6,25.7,24.6z"
			/>
		<path d="M25.7,31.8h16.8c1,0,1.8,0.8,1.8,1.8l0,0c0,1-0.8,1.8-1.8,1.8H25.7c-1,0-1.8-0.8-1.8-1.8l0,0
			C23.9,32.7,24.7,31.8,25.7,31.8z"/>
		<path d="M25.7,39.1h16.8c1,0,1.8,0.8,1.8,1.8l0,0c0,1-0.8,1.8-1.8,1.8H25.7c-1,0-1.8-0.8-1.8-1.8l0,0
			C23.9,39.9,24.7,39.1,25.7,39.1z"/>
		<path d="M65.6,24.6H48.9c-1,0-1.8,0.8-1.8,1.8c0,1,0.8,1.8,1.8,1.8h16.8c1,0,1.8-0.8,1.8-1.8C67.5,25.4,66.6,24.6,65.6,24.6z
			 M65.7,27.8H48.9c-0.8,0-1.4-0.6-1.4-1.4c0-0.8,0.6-1.4,1.4-1.4h16.8c0.8,0,1.4,0.6,1.4,1.4C67.1,27.2,66.5,27.8,65.7,27.8
			C65.7,27.8,65.7,27.8,65.7,27.8z"/>
		<path d="M19.3,31.8H2.5c-1,0-1.8,0.8-1.8,1.8c0,1,0.8,1.8,1.8,1.8h16.8c1,0,1.8-0.8,1.8-1.8C21.1,32.7,20.3,31.8,19.3,31.8z
			 M19.3,35.1H2.5c-0.8,0-1.4-0.6-1.4-1.4c0-0.8,0.6-1.4,1.4-1.4h16.8c0.8,0,1.4,0.6,1.4,1.4C20.7,34.5,20.1,35.1,19.3,35.1z"/>
		<path d="M65.6,31.8H48.9c-1,0-1.8,0.8-1.8,1.8c0,1,0.8,1.8,1.8,1.8h16.8c1,0,1.8-0.8,1.8-1.8C67.5,32.7,66.6,31.8,65.6,31.8z
			 M65.6,35.1H48.9c-0.8,0-1.4-0.6-1.4-1.4c0-0.8,0.6-1.4,1.4-1.4h16.8c0.8,0,1.4,0.6,1.4,1.4C67,34.5,66.4,35.1,65.6,35.1z"/>
		<path d="M65.6,39.1H48.9c-1,0-1.8,0.8-1.8,1.8c0,1,0.8,1.8,1.8,1.8c0,0,0,0,0,0h16.8c1,0,1.8-0.8,1.8-1.8
			C67.5,39.9,66.6,39.1,65.6,39.1z M65.6,42.4H48.9c-0.8,0-1.4-0.6-1.4-1.4c0-0.8,0.6-1.4,1.4-1.4h16.8c0.8,0,1.4,0.6,1.4,1.4
			C67,41.7,66.4,42.4,65.6,42.4z"/>
		<path d="M88.9,39.1H72.1c-1,0-1.8,0.8-1.8,1.8c0,1,0.8,1.8,1.8,1.8h16.8c1,0,1.8-0.8,1.8-1.8C90.7,39.9,89.9,39.1,88.9,39.1z
			 M88.9,42.4H72.1c-0.8,0-1.4-0.6-1.4-1.4c0-0.8,0.6-1.4,1.4-1.4h16.8c0.8,0,1.4,0.6,1.4,1.4C90.3,41.7,89.6,42.4,88.9,42.4
			C88.9,42.4,88.9,42.4,88.9,42.4z"/>
		<path d="M88.9,31.8H72.1c-1,0-1.8,0.8-1.8,1.8c0,1,0.8,1.8,1.8,1.8h16.8c1,0,1.8-0.8,1.8-1.8C90.7,32.7,89.9,31.8,88.9,31.8
			C88.9,31.8,88.9,31.8,88.9,31.8z M88.9,35.1H72.1c-0.8,0-1.4-0.6-1.4-1.4c0-0.8,0.6-1.4,1.4-1.4h16.8c0.8,0,1.4,0.6,1.4,1.4
			C90.3,34.5,89.6,35.1,88.9,35.1C88.9,35.1,88.9,35.1,88.9,35.1z"/>
		<path d="M88.9,24.6H72.1c-1,0-1.8,0.8-1.8,1.8c0,1,0.8,1.8,1.8,1.8h16.8c1,0,1.8-0.8,1.8-1.8S89.9,24.6,88.9,24.6
			C88.9,24.6,88.9,24.6,88.9,24.6z M88.9,27.8H72.1c-0.8,0-1.4-0.6-1.4-1.4c0-0.8,0.6-1.4,1.4-1.4h16.8c0.8,0,1.4,0.6,1.4,1.4
			C90.3,27.2,89.6,27.8,88.9,27.8C88.9,27.8,88.9,27.8,88.9,27.8z"/>
		<path d="M88.9,17.3H72.1c-1,0-1.8,0.8-1.8,1.8c0,1,0.8,1.8,1.8,1.8h16.8c1,0,1.8-0.8,1.8-1.8C90.7,18.1,89.9,17.3,88.9,17.3z
			 M88.9,20.5H72.1c-0.8,0-1.4-0.6-1.4-1.4c0-0.8,0.6-1.4,1.4-1.4h16.8c0.8,0,1.4,0.6,1.4,1.4C90.3,19.9,89.6,20.5,88.9,20.5
			C88.9,20.5,88.9,20.5,88.9,20.5z"/>
		<path d="M88.9,10H72.1c-1,0-1.8,0.8-1.8,1.8c0,1,0.8,1.8,1.8,1.8h16.8c1,0,1.8-0.8,1.8-1.8C90.7,10.8,89.9,10,88.9,10z M88.9,13.3
			H72.1c-0.8,0-1.4-0.6-1.4-1.4c0-0.8,0.6-1.4,1.4-1.4h16.8c0.8,0,1.4,0.6,1.4,1.4C90.3,12.6,89.6,13.3,88.9,13.3
			C88.9,13.3,88.9,13.3,88.9,13.3z"/>
	</g>
</g>
<g id="Layer_2">
	<path class="st2" d="M20.2,42H1.8c-0.6,0-1-0.4-1-1s0.4-1,1-1h18.4c0.6,0,1,0.4,1,1S20.7,42,20.2,42z"/>
	<path class="st2" d="M20.2,36.4H1.8c-0.6,0-1-0.4-1-1s0.4-1,1-1h18.4c0.6,0,1,0.4,1,1S20.7,36.4,20.2,36.4z"/>
	<path class="st3" d="M43.3,42H24.9c-0.6,0-1-0.4-1-1s0.4-1,1-1h18.4c0.6,0,1,0.4,1,1S43.9,42,43.3,42z"/>
	<path class="st2" d="M66.5,42H48c-0.6,0-1-0.4-1-1s0.4-1,1-1h18.4c0.6,0,1,0.4,1,1S67,42,66.5,42z"/>
	<path class="st2" d="M89.7,42H71.3c-0.6,0-1-0.4-1-1s0.4-1,1-1h18.4c0.6,0,1,0.4,1,1S90.2,42,89.7,42z"/>
	<path class="st3" d="M43.3,36.4H24.9c-0.6,0-1-0.4-1-1s0.4-1,1-1h18.4c0.6,0,1,0.4,1,1S43.9,36.4,43.3,36.4z"/>
	<path class="st3" d="M43.3,30.8H24.9c-0.6,0-1-0.4-1-1s0.4-1,1-1h18.4c0.6,0,1,0.4,1,1S43.9,30.8,43.3,30.8z"/>
	<path class="st2" d="M66.5,36.4H48.1c-0.6,0-1-0.4-1-1s0.4-1,1-1h18.4c0.6,0,1,0.4,1,1S67.1,36.4,66.5,36.4z"/>
	<path class="st2" d="M66.5,30.8H48.1c-0.6,0-1-0.4-1-1s0.4-1,1-1h18.4c0.6,0,1,0.4,1,1S67.1,30.8,66.5,30.8z"/>
	<path class="st3" d="M43.3,25.2H24.9c-0.6,0-1-0.4-1-1s0.4-1,1-1h18.4c0.6,0,1,0.4,1,1S43.9,25.2,43.3,25.2z"/>
	<path class="st2" d="M89.7,36.4H71.3c-0.6,0-1-0.4-1-1s0.4-1,1-1h18.4c0.6,0,1,0.4,1,1S90.2,36.4,89.7,36.4z"/>
	<path class="st2" d="M89.7,30.8H71.3c-0.6,0-1-0.4-1-1s0.4-1,1-1h18.4c0.6,0,1,0.4,1,1S90.2,30.8,89.7,30.8z"/>
	<path class="st2" d="M89.7,25.2H71.3c-0.6,0-1-0.4-1-1s0.4-1,1-1h18.4c0.6,0,1,0.4,1,1S90.2,25.2,89.7,25.2z"/>
	<path class="st2" d="M89.7,18.8H71.3c-0.6,0-1-0.4-1-1s0.4-1,1-1h18.4c0.6,0,1,0.4,1,1S90.2,18.8,89.7,18.8z"/>
	<path class="st3" d="M43.3,19.6H24.9c-0.6,0-1-0.4-1-1s0.4-1,1-1h18.4c0.6,0,1,0.4,1,1S43.9,19.6,43.3,19.6z"/>
	<path class="st3" d="M43.3,14H24.9c-0.6,0-1-0.4-1-1s0.4-1,1-1h18.4c0.6,0,1,0.4,1,1S43.9,14,43.3,14z"/>
	<path class="st3" d="M43.3,8.4H24.9c-0.6,0-1-0.4-1-1s0.4-1,1-1h18.4c0.6,0,1,0.4,1,1S43.9,8.4,43.3,8.4z"/>
	<path class="st3" d="M43.3,2.8H24.9c-0.6,0-1-0.4-1-1s0.4-1,1-1h18.4c0.6,0,1,0.4,1,1S43.9,2.8,43.3,2.8z"/>
</g>
</svg>
