<?xml version="1.0" encoding="utf-8"?>
<!-- Generator: Adobe Illustrator 24.1.2, SVG Export Plug-In . SVG Version: 6.00 Build 0)  -->
<svg version="1.1" id="Layer_1" xmlns="http://www.w3.org/2000/svg" xmlns:xlink="http://www.w3.org/1999/xlink" x="0px" y="0px"
	 viewBox="0 0 57.6 46.7" style="enable-background:new 0 0 57.6 46.7;" xml:space="preserve">
<style type="text/css">
	.st0{fill:none;stroke:#FF2D55;stroke-width:2;stroke-linejoin:round;stroke-miterlimit:10;}
	.st1{fill:none;stroke:#FF2D55;stroke-width:2;stroke-linecap:round;stroke-miterlimit:10;}
</style>
<g>
	<path class="st0" d="M55.9,9.7C56,9.8,56,9.9,56,10v7.1c0,0.1-0.1,0.3-0.1,0.3L29.1,44.2c-0.1,0.1-0.2,0.1-0.3,0L2.1,17.5
		C2,17.4,2,17.3,2,17.2v-7.1C2,10,2.1,9.8,2.1,9.8l8-8c0.1-0.1,0.2-0.1,0.3-0.1h7.1c0.1,0,0.3,0.1,0.3,0.1l8.8,8.8
		c0.1,0.1,0.2,0.2,0.3,0.3l1.8,1.8c0.1,0.1,0.2,0.1,0.3,0l1.8-1.8c0.1-0.1,0.2-0.2,0.3-0.3l8.8-8.8c0.1-0.1,0.2-0.1,0.3-0.1h7.2
		L55.9,9.7z"/>
</g>
<line class="st1" x1="5.6" y1="11.8" x2="12.1" y2="5.3"/>
</svg>
