<?xml version="1.0" encoding="utf-8"?>
<!-- Generator: Adobe Illustrator 24.2.3, SVG Export Plug-In . SVG Version: 6.00 Build 0)  -->
<svg version="1.1" id="Layer_1" xmlns="http://www.w3.org/2000/svg" xmlns:xlink="http://www.w3.org/1999/xlink" x="0px" y="0px"
	 viewBox="0 0 52.9 40.4" style="enable-background:new 0 0 52.9 40.4;" xml:space="preserve">
<style type="text/css">
	.st0{fill:#00B7C2;}
</style>
<path class="st0" d="M50.2,33.7c-1.8,0-2.8,0.6-3.5,1.1c-0.7,0.4-1.3,0.8-2.5,0.8s-1.8-0.4-2.5-0.8c-0.8-0.5-1.7-1.1-3.5-1.1
	s-2.8,0.6-3.5,1.1c-0.7,0.4-1.3,0.8-2.5,0.8s-1.8-0.4-2.5-0.8c-0.8-0.5-1.7-1.1-3.5-1.1s-2.8,0.6-3.5,1.1c-0.7,0.4-1.3,0.8-2.5,0.8
	s-1.8-0.4-2.5-0.8c-0.8-0.5-1.7-1.1-3.5-1.1s-2.8,0.6-3.5,1.1c-0.7,0.4-1.3,0.8-2.5,0.8s-1.8-0.4-2.5-0.8C5,34.3,4,33.7,2.2,33.7
	c-0.6,0-1,0.4-1,1s0.4,1,1,1c1.2,0,1.8,0.4,2.5,0.8c0.8,0.5,1.7,1.1,3.5,1.1s2.8-0.6,3.5-1.1c0.7-0.4,1.3-0.8,2.5-0.8
	s1.8,0.4,2.5,0.8c0.8,0.5,1.7,1.1,3.5,1.1s2.8-0.6,3.5-1.1c0.7-0.4,1.3-0.8,2.5-0.8s1.8,0.4,2.5,0.8c0.8,0.5,1.7,1.1,3.5,1.1
	s2.8-0.6,3.5-1.1c0.7-0.4,1.3-0.8,2.5-0.8s1.8,0.4,2.5,0.8c0.8,0.5,1.7,1.1,3.5,1.1s2.8-0.6,3.5-1.1c0.7-0.4,1.3-0.8,2.5-0.8
	c0.6,0,1-0.4,1-1S50.8,33.7,50.2,33.7z"/>
<path class="st0" d="M50.2,26.5c-1.8,0-2.8,0.6-3.5,1.1c-0.7,0.4-1.3,0.8-2.5,0.8s-1.8-0.4-2.5-0.8c-0.8-0.5-1.7-1.1-3.5-1.1
	s-2.8,0.6-3.5,1.1c-0.7,0.4-1.3,0.8-2.5,0.8s-1.8-0.4-2.5-0.8c-0.8-0.5-1.7-1.1-3.5-1.1s-2.8,0.6-3.5,1.1c-0.7,0.4-1.3,0.8-2.5,0.8
	s-1.8-0.4-2.5-0.8c-0.8-0.5-1.7-1.1-3.5-1.1s-2.8,0.6-3.5,1.1C10,28,9.4,28.4,8.2,28.4S6.4,28,5.7,27.6C5,27.1,4,26.5,2.2,26.5
	c-0.6,0-1,0.4-1,1s0.4,1,1,1c1.2,0,1.8,0.4,2.5,0.8c0.8,0.5,1.7,1.1,3.5,1.1s2.8-0.6,3.5-1.1c0.7-0.4,1.3-0.8,2.5-0.8
	s1.8,0.4,2.5,0.8c0.8,0.5,1.7,1.1,3.5,1.1s2.8-0.6,3.5-1.1c0.7-0.4,1.3-0.8,2.5-0.8s1.8,0.4,2.5,0.8c0.8,0.5,1.7,1.1,3.5,1.1
	s2.8-0.6,3.5-1.1c0.7-0.4,1.3-0.8,2.5-0.8s1.8,0.4,2.5,0.8c0.8,0.5,1.7,1.1,3.5,1.1s2.8-0.6,3.5-1.1c0.7-0.4,1.3-0.8,2.5-0.8
	c0.6,0,1-0.4,1-1S50.8,26.5,50.2,26.5z"/>
<path class="st0" d="M50.2,19.2c-1.8,0-2.8,0.6-3.5,1.1c-0.7,0.4-1.3,0.8-2.5,0.8s-1.8-0.4-2.5-0.8c-0.8-0.5-1.7-1.1-3.5-1.1
	s-2.8,0.6-3.5,1.1c-0.7,0.4-1.3,0.8-2.5,0.8s-1.8-0.4-2.5-0.8c-0.8-0.5-1.7-1.1-3.5-1.1s-2.8,0.6-3.5,1.1c-0.7,0.4-1.3,0.8-2.5,0.8
	s-1.8-0.4-2.5-0.8c-0.8-0.5-1.7-1.1-3.5-1.1s-2.8,0.6-3.5,1.1c-0.7,0.4-1.3,0.8-2.5,0.8s-1.8-0.4-2.5-0.8C5,19.9,4,19.2,2.2,19.2
	c-0.6,0-1,0.4-1,1s0.4,1,1,1c1.2,0,1.8,0.4,2.5,0.8c0.8,0.5,1.7,1.1,3.5,1.1s2.8-0.6,3.5-1.1c0.7-0.4,1.3-0.8,2.5-0.8
	s1.8,0.4,2.5,0.8c0.8,0.5,1.7,1.1,3.5,1.1s2.8-0.6,3.5-1.1c0.7-0.4,1.3-0.8,2.5-0.8s1.8,0.4,2.5,0.8c0.8,0.5,1.7,1.1,3.5,1.1
	s2.8-0.6,3.5-1.1c0.7-0.4,1.3-0.8,2.5-0.8s1.8,0.4,2.5,0.8c0.8,0.5,1.7,1.1,3.5,1.1s2.8-0.6,3.5-1.1c0.7-0.4,1.3-0.8,2.5-0.8
	c0.6,0,1-0.4,1-1S50.8,19.2,50.2,19.2z"/>
<path class="st0" d="M38.1,15.3c0.6,0.3,1.2,0.4,1.8,0.4c2.4,0,4.1-2.2,5.4-3.9c1-1.3,1.9-2.6,2.8-2.6c0.4,0,0.9,0.3,1.5,0.9
	c0.4,0.4,1,0.4,1.4,0s0.4-1,0-1.4c-1-1.1-2-1.5-3-1.5c-1.8,0.1-3,1.8-4.3,3.4c-1.8,2.3-3,3.7-4.7,2.9c-1-0.5-1.6-1.2-1.4-2
	c0.1-0.5,0.6-1.1,1.4-1.2c0.4,0,0.7-0.3,0.9-0.6C40,9.3,40,8.9,39.7,8.6c-1-1.1-2-1.5-3-1.5c-1.8,0.1-3,1.8-4.3,3.4
	c-1.8,2.3-3,3.7-4.7,2.9c-1-0.5-1.6-1.2-1.4-2c0.1-0.5,0.6-1.1,1.4-1.2c0.4,0,0.7-0.3,0.9-0.6c0.1-0.4,0.1-0.8-0.2-1.1
	c-1-1.1-2-1.5-3-1.5c-1.8,0.1-3,1.8-4.3,3.4c-1.8,2.3-3,3.7-4.7,2.9c-1-0.5-1.6-1.2-1.4-2c0.1-0.5,0.6-1.1,1.4-1.2
	c0.4,0,0.7-0.3,0.9-0.6c0.1-0.4,0.1-0.8-0.2-1.1c-1-1.1-2-1.5-3-1.5c-1.8,0.1-3,1.8-4.3,3.4c-1.8,2.3-3,3.7-4.7,2.9
	c-1-0.5-1.5-1.2-1.4-1.9c0.1-0.6,0.6-1.2,1.4-1.2c0.6,0,1-0.5,0.9-1s-0.5-1-1-0.9C3.4,8.3,2.1,9.5,1.8,11c-0.2,1.3,0.3,3.1,2.6,4.1
	c3.3,1.5,5.5-1.4,7.1-3.5c1-1.3,2-2.6,2.8-2.6c0,0,0,0,0.1,0c-0.6,0.5-1,1.2-1.1,2c-0.2,1.4,0.3,3.2,2.6,4.2
	c3.3,1.5,5.5-1.4,7.1-3.5c1-1.3,2-2.6,2.8-2.6c0,0,0,0,0.1,0c-0.6,0.5-1,1.2-1.1,2c-0.2,1.4,0.3,3.2,2.6,4.2
	c3.3,1.5,5.5-1.4,7.1-3.5c1-1.3,2-2.6,2.8-2.6c0,0,0,0,0.1,0c-0.6,0.5-1,1.2-1.1,2C35.3,12.5,35.8,14.3,38.1,15.3z"/>
</svg>
