<?xml version="1.0" encoding="utf-8"?>
<!-- Generator: Adobe Illustrator 24.2.3, SVG Export Plug-In . SVG Version: 6.00 Build 0)  -->
<svg version="1.1" id="Layer_1" xmlns="http://www.w3.org/2000/svg" xmlns:xlink="http://www.w3.org/1999/xlink" x="0px" y="0px"
	 viewBox="0 0 93.7 97.5" style="enable-background:new 0 0 93.7 97.5;" xml:space="preserve">
<style type="text/css">
	.st0{fill:#00B7C2;}
</style>
<g>
	<path class="st0" d="M44.1,59.9c-8.1,0-14.8-6.6-14.8-14.8c0-8.1,6.6-14.8,14.8-14.8S58.9,37,58.9,45.2
		C58.9,53.3,52.3,59.9,44.1,59.9z M44.1,33.9c-6.2,0-11.2,5-11.2,11.2s5,11.2,11.2,11.2s11.2-5,11.2-11.2
		C55.4,39,50.3,33.9,44.1,33.9z"/>
</g>
<g>
	<polygon class="st0" points="34,36.9 17,19 19.5,16.6 36.6,34.5 	"/>
</g>
<g>
	<rect x="49.8" y="26.8" transform="matrix(0.672 -0.7405 0.7405 0.672 -1.6468 53.3998)" class="st0" width="19.3" height="3.5"/>
</g>
<g>
	<rect x="66.8" y="38.9" transform="matrix(0.25 -0.9682 0.9682 0.25 2.0339 104.5695)" class="st0" width="3.5" height="24.2"/>
</g>
<g>
	<path class="st0" d="M49.1,81.8C43.6,57,43.6,57,45,56.4l1.3,3.3l-0.6-1.6l1.7-0.3c0.1,0.7,3.1,14.3,5.1,23.2L49.1,81.8z"/>
</g>
<g>
	<polygon class="st0" points="15.5,52.7 14.8,49.2 31.1,46.2 31.8,49.7 	"/>
</g>
<g>
	<path class="st0" d="M12.6,21.8C7,21.8,2.5,17.2,2.5,11.7C2.5,6.1,7,1.6,12.6,1.6s10.1,4.5,10.1,10.1
		C22.7,17.2,18.1,21.8,12.6,21.8z M12.6,5.1C8.9,5.1,6,8,6,11.7s3,6.6,6.6,6.6s6.6-3,6.6-6.6S16.2,5.1,12.6,5.1z"/>
</g>
<g>
	<path class="st0" d="M85,62.2c-3.9,0-7.1-3.2-7.1-7.1S81.1,48,85,48s7.1,3.2,7.1,7.1S88.9,62.2,85,62.2z M85,51.5
		c-2,0-3.6,1.6-3.6,3.6s1.6,3.6,3.6,3.6s3.6-1.6,3.6-3.6S87,51.5,85,51.5z"/>
</g>
<g>
	<path class="st0" d="M11.1,57.7c-3.1,0-5.6-2.5-5.6-5.6s2.5-5.6,5.6-5.6s5.6,2.5,5.6,5.6S14.2,57.7,11.1,57.7z M11.1,50
		c-1.1,0-2,1-2,2.1s0.9,2.1,2.1,2.1c1.1,0,2.1-0.9,2.1-2.1C13.2,51,12.3,50,11.1,50z"/>
</g>
<g>
	<path class="st0" d="M70.2,24.3c-4.3,0-7.8-3.5-7.8-7.8s3.5-7.8,7.8-7.8s7.8,3.5,7.8,7.8S74.5,24.3,70.2,24.3z M70.2,12.2
		c-2.4,0-4.3,1.9-4.3,4.3s1.9,4.3,4.3,4.3s4.3-1.9,4.3-4.3S72.6,12.2,70.2,12.2z"/>
</g>
<g>
	<path class="st0" d="M51.6,95.2c-4.5,0-8.1-3.6-8.1-8.1c0-4.4,3.6-8.1,8.1-8.1c4.4,0,8.1,3.6,8.1,8.1C59.7,91.6,56,95.2,51.6,95.2z
		 M51.6,82.6c-2.5,0-4.6,2-4.6,4.5s2,4.6,4.6,4.6c2.5,0,4.5-2,4.5-4.6C56.1,84.7,54.1,82.6,51.6,82.6z"/>
</g>
<g>
	<path class="st0" d="M53,46.1h-3.5c0.1-5.8-5.3-6.2-5.5-6.2l0.2-3.5C47.3,36.6,53.1,38.9,53,46.1z"/>
</g>
</svg>
