<?xml version="1.0" encoding="utf-8"?>
<!-- Generator: Adobe Illustrator 24.2.3, SVG Export Plug-In . SVG Version: 6.00 Build 0)  -->
<svg version="1.1"
	 id="Layer_1" xmlns:cc="http://creativecommons.org/ns#" xmlns:dc="http://purl.org/dc/elements/1.1/" xmlns:inkscape="http://www.inkscape.org/namespaces/inkscape" xmlns:rdf="http://www.w3.org/1999/02/22-rdf-syntax-ns#" xmlns:sodipodi="http://sodipodi.sourceforge.net/DTD/sodipodi-0.dtd" xmlns:svg="http://www.w3.org/2000/svg"
	 xmlns="http://www.w3.org/2000/svg" xmlns:xlink="http://www.w3.org/1999/xlink" x="0px" y="0px" viewBox="0 0 85.1 98.2"
	 style="enable-background:new 0 0 85.1 98.2;" xml:space="preserve">
<style type="text/css">
	.st0{fill:#00B7C2;}
	.st1{fill:none;stroke:#00B7C2;stroke-width:4;stroke-linecap:round;stroke-miterlimit:10;}
</style>
<path class="st0" d="M19.5,0.8c-6,0-11,5-11,10v53.9c-4.2,3.3-7,8.4-7,14.1c0,9.9,8.1,18,18,18s18-8.1,18-18c0-5.8-2.8-10.9-7-14.2
	c0-19,0-38.1,0-53.8C30.6,4.8,25.6,0.8,19.5,0.8L19.5,0.8z M19.5,4.8c3.1,0,7,2.5,7,6c0.1,19.2,0,38.6,0,54.8c0,0.6,0.3,1.3,0.9,1.7
	c3.7,2.5,6.1,6.8,6.1,11.6c0,7.8-6.2,14-14,14s-14-6.2-14-14c0-4.8,2.4-9,6.1-11.6c0.5-0.4,0.9-1,0.9-1.7V10.8
	C12.6,6.8,16.6,4.8,19.5,4.8L19.5,4.8z M19.5,17.8c-1,0.1-2,1.1-2,2v49.3c-4.5,0.9-8,5-8,9.8c0,5.5,4.5,10,10,10s10-4.5,10-10
	c0-4.8-3.5-8.8-8-9.8V19.8C21.6,18.7,20.6,17.8,19.5,17.8L19.5,17.8z M60.6,35.9c-7.2,0-13,5.8-13,13s5.8,13,13,13s13-5.8,13-13
	S67.7,35.9,60.6,35.9z M60.6,39.8c5,0,9,4,9,9s-4,9-9,9s-9-4-9-9S55.6,39.8,60.6,39.8z M19.6,72.8c3.3,0,6,2.7,6,6s-2.7,6-6,6
	s-6-2.7-6-6S16.2,72.8,19.6,72.8z"/>
<line class="st1" x1="60.6" y1="27.9" x2="60.6" y2="31.8"/>
<line class="st1" x1="75.4" y1="34" x2="72.6" y2="36.8"/>
<line class="st1" x1="81.5" y1="48.8" x2="77.6" y2="48.8"/>
<line class="st1" x1="75.4" y1="63.7" x2="72.6" y2="60.9"/>
<line class="st1" x1="60.6" y1="69.7" x2="60.6" y2="65.8"/>
<line class="st1" x1="45.8" y1="63.6" x2="48.5" y2="60.9"/>
<line class="st1" x1="39.7" y1="48.9" x2="43.6" y2="48.9"/>
<line class="st1" x1="45.7" y1="33.9" x2="48.5" y2="36.8"/>
</svg>
