<?xml version="1.0" encoding="utf-8"?>
<!-- Generator: Adobe Illustrator 24.2.3, SVG Export Plug-In . SVG Version: 6.00 Build 0)  -->
<svg version="1.1" id="Layer_1" xmlns="http://www.w3.org/2000/svg" xmlns:xlink="http://www.w3.org/1999/xlink" x="0px" y="0px"
	 viewBox="0 0 49 75.1" style="enable-background:new 0 0 49 75.1;" xml:space="preserve">
<style type="text/css">
	.st0{fill:none;stroke:#00B7C2;stroke-width:3;stroke-linecap:round;stroke-miterlimit:10;}
	.st1{fill:#00B7C2;}
</style>
<path class="st0" d="M20.5,43.6c-2.8-0.9-5.3-2.6-7-5C12.8,38.9,12,39,11.3,39C6.2,39,2,34.8,2,29.7c0-3.9,2.4-7.2,5.7-8.5
	c-0.3-0.9-0.5-1.9-0.5-2.9c0-5,4-9.1,9-9.2c1-4,4.6-7,9-7c4.7,0,8.6,3.5,9.1,8c0.5-0.1,0.9-0.1,1.4-0.1c5.1,0,9.2,4.1,9.2,9.2
	c0,1.7-0.5,3.3-1.2,4.6c1.8,1.7,3,4.1,3,6.8c0,5.1-4.1,9.2-9.2,9.2c-1,0-1.9-0.1-2.8-0.4c-1.7,2-3.9,3.5-6.4,4.2"/>
<path class="st1" d="M24.7,14.3c0.8,0,1.5,0.7,1.5,1.5v9.9l5.3-5.3c0.6-0.6,1.5-0.6,2.1,0s0.6,1.5,0,2.1l-7.4,7.4v42.9
	c0,0.8-0.7,1.5-1.5,1.5s-1.5-0.7-1.5-1.5V35.9l-7.4-7.4c-0.5-0.5-0.6-1.4-0.1-2l0.1-0.1c0.6-0.6,1.5-0.6,2.1,0l0,0l5.3,5.3V15.8
	C23.2,15,23.8,14.3,24.7,14.3z"/>
</svg>
