<?xml version="1.0" encoding="utf-8"?>
<!-- Generator: Adobe Illustrator 24.3.0, SVG Export Plug-In . SVG Version: 6.00 Build 0)  -->
<svg version="1.1" id="Layer_1" xmlns="http://www.w3.org/2000/svg" xmlns:xlink="http://www.w3.org/1999/xlink" x="0px" y="0px"
	 viewBox="0 0 423 281.2" style="enable-background:new 0 0 423 281.2;" xml:space="preserve">
<style type="text/css">
	.st0{fill-rule:evenodd;clip-rule:evenodd;fill:#FFFAFA;}
</style>
<path class="st0" d="M85,112c3.7-0.1,7.4,0.2,11,1c14-26,41-43,73-43c15-41,54-70,99-70c58.7-0.4,106.5,46.9,106.9,105.5
	c0,4.8-0.3,9.7-0.9,14.5c82,37,56,161-35,161c-15,0-29.8-3.7-43-11c-26,15-58,15-84,0c-26.3,15-58.7,15-85,0
	c-12.8,7.2-27.3,11-42,11c-47,0-85-38-85-84c0-46.9,38-85,84.9-85C84.9,112,85,112,85,112z"/>
</svg>
