<?xml version="1.0" encoding="utf-8"?>
<!-- Generator: Adobe Illustrator 24.3.0, SVG Export Plug-In . SVG Version: 6.00 Build 0)  -->
<svg version="1.1" id="Layer_1" xmlns="http://www.w3.org/2000/svg" xmlns:xlink="http://www.w3.org/1999/xlink" x="0px" y="0px"
	 viewBox="0 0 371 209" style="enable-background:new 0 0 371 209;" xml:space="preserve">
<style type="text/css">
	.st0{fill-rule:evenodd;clip-rule:evenodd;fill:#FFFAFA;}
</style>
<path class="st0" d="M342,113c17.7,8.5,28.9,26.4,29,46c0.3,27.3-21.7,49.7-49,50c-0.3,0-0.7,0-1,0H35c-19.2,0.1-34.9-15.4-35-34.6
	c0-0.1,0-0.3,0-0.4c0-19,16-35,35-35c7-16,21-27,39-30c4-33,40-52,70-38c6-29,32-50,62-52C273-34,368,33,342,113z"/>
</svg>
